# xmcd
#
# Track frame offsets:
# 150
# 2935
# 19615
# 35127
# 54642
# 71780
# 94782
# 113202
# 129560
# 150785
# 165495
# 179250
# 203797
# 219132
#
# Disc length: 3199 seconds
#
#
# Revision: 1
# Processed by: cddbd v1.5.1PL0 Copyright (c) Steve Scherf et al.
# Submitted via: FreeRIP 2.80 
#
DISCID=b50c7d0e
DTITLE=Blaque - Ivory
DYEAR=1999
DGENRE=R&B
TTITLE0=Intro
TTITLE1=Roll With Me
TTITLE2=I Do
TTITLE3=Leny
TTITLE4=Rainbow Drive
TTITLE5=808
TTITLE6=Time After Time
TTITLE7=Bring I All To Me
TTITLE8=Mind Of A King
TTITLE9=Don't Go Looking For Me
TTITLE10=Release Me
TTITLE11=Right Next To Me
TTITLE12=Stay By Your Side
TTITLE13=When The Last Teardrop Falls
EXTD=
EXTT0=
EXTT1=
EXTT2=
EXTT3=
EXTT4=
EXTT5=
EXTT6=
EXTT7=
EXTT8=
EXTT9=
EXTT10=
EXTT11=
EXTT12=
EXTT13=
PLAYORDER=
